<mxfile host="app.diagrams.net" modified="2024-03-15T13:35:10.289Z" agent="Mozilla/5.0 (Macintosh; Intel Mac OS X 10_15_7) AppleWebKit/537.36 (KHTML, like Gecko) Chrome/122.0.0.0 Safari/537.36" etag="WmsO0zQyfOObN8jerX77" version="24.0.4" type="device">
  <diagram name="Página-1" id="nTBrqxnpB3Xi8DOPw0RJ">
    <mxGraphModel dx="4284" dy="2494" grid="1" gridSize="10" guides="1" tooltips="1" connect="1" arrows="1" fold="1" page="1" pageScale="1" pageWidth="827" pageHeight="1169" math="0" shadow="0">
      <root>
        <mxCell id="0" />
        <mxCell id="1" parent="0" />
        <mxCell id="TjHL__S3JmsOCRUsOF36-53" value="" style="rounded=0;whiteSpace=wrap;html=1;fillColor=none;strokeColor=#6c8ebf;" parent="1" vertex="1">
          <mxGeometry x="350" y="-206.5" width="720" height="1046.5" as="geometry" />
        </mxCell>
        <mxCell id="QShAf5VT7i_qyNpQsQwI-6" value="" style="strokeColor=#dddddd;shadow=1;strokeWidth=1;rounded=1;absoluteArcSize=1;arcSize=2;" parent="1" vertex="1">
          <mxGeometry x="292.94" y="-120" width="110" height="870" as="geometry" />
        </mxCell>
        <mxCell id="QShAf5VT7i_qyNpQsQwI-7" value="&lt;b&gt;&lt;font color=&quot;#919191&quot;&gt;API &lt;br&gt;Gateway&lt;br&gt;Nginx&lt;br&gt;&lt;/font&gt;&lt;/b&gt;" style="sketch=0;dashed=0;connectable=0;html=1;fillColor=#757575;strokeColor=none;shape=mxgraph.gcp2.gateway;part=1;labelPosition=right;verticalLabelPosition=middle;align=left;verticalAlign=middle;spacingLeft=5;fontSize=12;" parent="QShAf5VT7i_qyNpQsQwI-6" vertex="1">
          <mxGeometry y="0.5" width="32" height="32" relative="1" as="geometry">
            <mxPoint x="5" y="-16" as="offset" />
          </mxGeometry>
        </mxCell>
        <mxCell id="lldvH-l1IPFX6XNPCzlH-34" style="edgeStyle=orthogonalEdgeStyle;rounded=0;orthogonalLoop=1;jettySize=auto;html=1;entryX=0;entryY=0.5;entryDx=0;entryDy=0;" edge="1" parent="1" source="QShAf5VT7i_qyNpQsQwI-14" target="QShAf5VT7i_qyNpQsQwI-6">
          <mxGeometry relative="1" as="geometry">
            <Array as="points">
              <mxPoint x="190" y="488" />
              <mxPoint x="190" y="315" />
            </Array>
          </mxGeometry>
        </mxCell>
        <mxCell id="QShAf5VT7i_qyNpQsQwI-14" value="App Food" style="strokeColor=#dddddd;shadow=1;strokeWidth=1;rounded=1;absoluteArcSize=1;arcSize=2;labelPosition=center;verticalLabelPosition=middle;align=center;verticalAlign=bottom;spacingLeft=0;fontColor=#999999;fontSize=12;whiteSpace=wrap;spacingBottom=2;html=1;" parent="1" vertex="1">
          <mxGeometry y="437.5" width="70" height="100.5" as="geometry" />
        </mxCell>
        <mxCell id="QShAf5VT7i_qyNpQsQwI-15" value="" style="sketch=0;dashed=0;connectable=0;html=1;fillColor=#757575;strokeColor=none;shape=mxgraph.gcp2.phone;part=1;" parent="QShAf5VT7i_qyNpQsQwI-14" vertex="1">
          <mxGeometry x="0.5" width="29.5" height="50" relative="1" as="geometry">
            <mxPoint x="-16" y="10" as="offset" />
          </mxGeometry>
        </mxCell>
        <mxCell id="QShAf5VT7i_qyNpQsQwI-22" value="" style="strokeColor=#dddddd;shadow=1;strokeWidth=1;rounded=1;absoluteArcSize=1;arcSize=2;" parent="1" vertex="1">
          <mxGeometry x="559.94" y="124.5" width="170" height="250" as="geometry" />
        </mxCell>
        <mxCell id="QShAf5VT7i_qyNpQsQwI-28" value="" style="group" parent="1" vertex="1" connectable="0">
          <mxGeometry x="562.94" y="334.5" width="91" height="39" as="geometry" />
        </mxCell>
        <mxCell id="QShAf5VT7i_qyNpQsQwI-26" value="" style="shape=image;html=1;verticalAlign=top;verticalLabelPosition=bottom;labelBackgroundColor=#ffffff;imageAspect=0;aspect=fixed;image=https://cdn0.iconfinder.com/data/icons/social-media-2104/24/social_media_social_media_logo_docker-128.png;fontColor=#0066CC;imageBackground=none;" parent="QShAf5VT7i_qyNpQsQwI-28" vertex="1">
          <mxGeometry y="4" width="30" height="30" as="geometry" />
        </mxCell>
        <mxCell id="QShAf5VT7i_qyNpQsQwI-27" value="&lt;font style=&quot;font-size: 10px;&quot;&gt;Container&lt;br&gt;&lt;/font&gt;" style="text;html=1;strokeColor=none;fillColor=none;align=left;verticalAlign=middle;whiteSpace=wrap;rounded=0;" parent="QShAf5VT7i_qyNpQsQwI-28" vertex="1">
          <mxGeometry x="36" width="55" height="39" as="geometry" />
        </mxCell>
        <mxCell id="QShAf5VT7i_qyNpQsQwI-29" value="&lt;font size=&quot;1&quot;&gt;&lt;b&gt;Orders&lt;/b&gt;&lt;/font&gt;" style="text;html=1;strokeColor=none;fillColor=none;align=center;verticalAlign=middle;whiteSpace=wrap;rounded=0;" parent="1" vertex="1">
          <mxGeometry x="614.94" y="133.5" width="60" height="30" as="geometry" />
        </mxCell>
        <mxCell id="QShAf5VT7i_qyNpQsQwI-44" value="" style="endArrow=none;dashed=1;html=1;dashPattern=1 3;strokeWidth=2;rounded=0;entryX=0;entryY=0.5;entryDx=0;entryDy=0;fillColor=#dae8fc;strokeColor=#6c8ebf;" parent="1" target="QShAf5VT7i_qyNpQsQwI-22" edge="1">
          <mxGeometry width="50" height="50" relative="1" as="geometry">
            <mxPoint x="402.94" y="249.5" as="sourcePoint" />
            <mxPoint x="318.94" y="114.5" as="targetPoint" />
          </mxGeometry>
        </mxCell>
        <mxCell id="TjHL__S3JmsOCRUsOF36-41" value="&lt;font color=&quot;#008cb4&quot;&gt;HTTP&lt;/font&gt;" style="edgeLabel;html=1;align=center;verticalAlign=middle;resizable=0;points=[];" parent="QShAf5VT7i_qyNpQsQwI-44" vertex="1" connectable="0">
          <mxGeometry x="0.2162" y="-4" relative="1" as="geometry">
            <mxPoint x="-6" y="-13" as="offset" />
          </mxGeometry>
        </mxCell>
        <mxCell id="QShAf5VT7i_qyNpQsQwI-48" style="edgeStyle=orthogonalEdgeStyle;rounded=0;orthogonalLoop=1;jettySize=auto;html=1;exitX=1;exitY=0.5;exitDx=0;exitDy=0;entryX=0;entryY=0.5;entryDx=0;entryDy=0;startArrow=classic;startFill=1;fillColor=#f5f5f5;strokeColor=#666666;" parent="1" source="QShAf5VT7i_qyNpQsQwI-46" target="QShAf5VT7i_qyNpQsQwI-6" edge="1">
          <mxGeometry relative="1" as="geometry">
            <Array as="points">
              <mxPoint x="190" y="172" />
              <mxPoint x="190" y="315" />
            </Array>
          </mxGeometry>
        </mxCell>
        <mxCell id="TjHL__S3JmsOCRUsOF36-44" value="HTTPS" style="edgeLabel;html=1;align=center;verticalAlign=middle;resizable=0;points=[];fontColor=#0066CC;" parent="QShAf5VT7i_qyNpQsQwI-48" vertex="1" connectable="0">
          <mxGeometry x="-0.3071" y="1" relative="1" as="geometry">
            <mxPoint x="53" y="112" as="offset" />
          </mxGeometry>
        </mxCell>
        <mxCell id="QShAf5VT7i_qyNpQsQwI-46" value="        Site Restaurante" style="strokeColor=#dddddd;shadow=1;strokeWidth=1;rounded=1;absoluteArcSize=1;arcSize=2;" parent="1" vertex="1">
          <mxGeometry x="-66.2" y="150" width="150" height="44" as="geometry" />
        </mxCell>
        <mxCell id="QShAf5VT7i_qyNpQsQwI-47" value="" style="sketch=0;dashed=0;connectable=0;html=1;fillColor=#757575;strokeColor=none;shape=mxgraph.gcp2.frontend_platform_services;part=1;labelPosition=right;verticalLabelPosition=middle;align=left;verticalAlign=middle;spacingLeft=5;fontSize=12;" parent="QShAf5VT7i_qyNpQsQwI-46" vertex="1">
          <mxGeometry y="0.5" width="32" height="32" relative="1" as="geometry">
            <mxPoint x="5" y="-16" as="offset" />
          </mxGeometry>
        </mxCell>
        <mxCell id="QShAf5VT7i_qyNpQsQwI-53" value="" style="sketch=0;html=1;aspect=fixed;strokeColor=#666666;shadow=0;fillColor=#757575;verticalAlign=top;labelPosition=center;verticalLabelPosition=bottom;shape=mxgraph.gcp2.database_2;fontColor=#333333;" parent="1" vertex="1">
          <mxGeometry x="666.19" y="173.5" width="39" height="50" as="geometry" />
        </mxCell>
        <mxCell id="QShAf5VT7i_qyNpQsQwI-54" value="" style="sketch=0;html=1;aspect=fixed;strokeColor=none;shadow=0;fillColor=#757575;verticalAlign=top;labelPosition=center;verticalLabelPosition=bottom;shape=mxgraph.gcp2.gear" parent="1" vertex="1">
          <mxGeometry x="572.19" y="210" width="50" height="50" as="geometry" />
        </mxCell>
        <mxCell id="QShAf5VT7i_qyNpQsQwI-56" value="&lt;span&gt;GoLang&lt;/span&gt;" style="text;html=1;strokeColor=none;fillColor=none;align=center;verticalAlign=middle;whiteSpace=wrap;rounded=0;fontStyle=1;fontColor=#757575;" parent="1" vertex="1">
          <mxGeometry x="568.19" y="259" width="60" height="30" as="geometry" />
        </mxCell>
        <mxCell id="QShAf5VT7i_qyNpQsQwI-57" value="&lt;span&gt;DB PostgreSQL&lt;/span&gt;" style="text;html=1;strokeColor=none;fillColor=none;align=center;verticalAlign=middle;whiteSpace=wrap;rounded=0;fontStyle=1;fontColor=#757575;" parent="1" vertex="1">
          <mxGeometry x="655.69" y="225.5" width="60" height="30" as="geometry" />
        </mxCell>
        <mxCell id="QShAf5VT7i_qyNpQsQwI-66" value="&lt;h1&gt;Design Arquitetura&lt;/h1&gt;&lt;p&gt;- &lt;b&gt;Tipo de Arquitetura&lt;/b&gt;: Microserviços (simples)&lt;/p&gt;&lt;p&gt;- &lt;b&gt;Containers&lt;/b&gt;: Docker&lt;/p&gt;&lt;p&gt;- &lt;b&gt;API Gateway: &lt;/b&gt;Nginx&lt;br&gt;&lt;/p&gt;&lt;p&gt;- &lt;b&gt;Serviços&lt;/b&gt;: GoLang&lt;/p&gt;&lt;p&gt;- &lt;b&gt;Banco de Dados&lt;/b&gt;: PostgreSQL e MongoDB&lt;/p&gt;&lt;p&gt;- &lt;b&gt;Frontend&lt;/b&gt;: React Native (EXPO)&amp;nbsp;&lt;br&gt;&lt;/p&gt;&lt;p&gt;- &lt;b&gt;Escalabilidade&lt;/b&gt;: Horizontal&lt;/p&gt;&lt;p&gt;&lt;br&gt;&lt;/p&gt;&lt;div&gt;&lt;br&gt;&lt;/div&gt;" style="text;html=1;strokeColor=none;fillColor=none;spacing=5;spacingTop=-20;whiteSpace=wrap;overflow=hidden;rounded=0;" parent="1" vertex="1">
          <mxGeometry x="-60" y="-279" width="303.75" height="279" as="geometry" />
        </mxCell>
        <mxCell id="FNPUPzLHhzSrSOBz0yO9-4" value="" style="group;fontStyle=1" parent="1" vertex="1" connectable="0">
          <mxGeometry x="910" y="800" width="160" height="39" as="geometry" />
        </mxCell>
        <mxCell id="FNPUPzLHhzSrSOBz0yO9-5" value="" style="shape=image;html=1;verticalAlign=top;verticalLabelPosition=bottom;labelBackgroundColor=#ffffff;imageAspect=0;aspect=fixed;image=https://cdn0.iconfinder.com/data/icons/social-media-2104/24/social_media_social_media_logo_docker-128.png;fontColor=#0066CC;imageBackground=none;" parent="FNPUPzLHhzSrSOBz0yO9-4" vertex="1">
          <mxGeometry y="4" width="30" height="30" as="geometry" />
        </mxCell>
        <mxCell id="FNPUPzLHhzSrSOBz0yO9-6" value="&lt;font&gt;&lt;font color=&quot;#919191&quot; style=&quot;font-size: 11px;&quot;&gt;Rede Interna Docker&lt;/font&gt;&lt;br&gt;&lt;/font&gt;" style="text;html=1;strokeColor=none;fillColor=none;align=left;verticalAlign=middle;whiteSpace=wrap;rounded=0;" parent="FNPUPzLHhzSrSOBz0yO9-4" vertex="1">
          <mxGeometry x="40" width="120" height="39" as="geometry" />
        </mxCell>
        <mxCell id="TjHL__S3JmsOCRUsOF36-27" value="" style="strokeColor=#dddddd;shadow=1;strokeWidth=1;rounded=1;absoluteArcSize=1;arcSize=2;" parent="1" vertex="1">
          <mxGeometry x="559.94" y="-104.5" width="170" height="170" as="geometry" />
        </mxCell>
        <mxCell id="TjHL__S3JmsOCRUsOF36-28" value="" style="group" parent="1" vertex="1" connectable="0">
          <mxGeometry x="570.94" y="24.5" width="91" height="39" as="geometry" />
        </mxCell>
        <mxCell id="TjHL__S3JmsOCRUsOF36-29" value="" style="shape=image;html=1;verticalAlign=top;verticalLabelPosition=bottom;labelBackgroundColor=#ffffff;imageAspect=0;aspect=fixed;image=https://cdn0.iconfinder.com/data/icons/social-media-2104/24/social_media_social_media_logo_docker-128.png;fontColor=#0066CC;imageBackground=none;" parent="TjHL__S3JmsOCRUsOF36-28" vertex="1">
          <mxGeometry y="4" width="30" height="30" as="geometry" />
        </mxCell>
        <mxCell id="TjHL__S3JmsOCRUsOF36-30" value="&lt;font style=&quot;font-size: 10px;&quot;&gt;Container&lt;br&gt;&lt;/font&gt;" style="text;html=1;strokeColor=none;fillColor=none;align=left;verticalAlign=middle;whiteSpace=wrap;rounded=0;" parent="TjHL__S3JmsOCRUsOF36-28" vertex="1">
          <mxGeometry x="36" width="55" height="39" as="geometry" />
        </mxCell>
        <mxCell id="TjHL__S3JmsOCRUsOF36-31" value="&lt;font size=&quot;1&quot;&gt;&lt;b&gt;Auth&lt;/b&gt;&lt;/font&gt;" style="text;html=1;strokeColor=none;fillColor=none;align=center;verticalAlign=middle;whiteSpace=wrap;rounded=0;" parent="1" vertex="1">
          <mxGeometry x="614.94" y="-105.5" width="60" height="30" as="geometry" />
        </mxCell>
        <mxCell id="TjHL__S3JmsOCRUsOF36-32" value="" style="endArrow=none;dashed=1;html=1;dashPattern=1 3;strokeWidth=2;rounded=0;exitX=1;exitY=0.25;exitDx=0;exitDy=0;entryX=0;entryY=0.75;entryDx=0;entryDy=0;fillColor=#f8cecc;strokeColor=#b85450;" parent="1" target="TjHL__S3JmsOCRUsOF36-27" edge="1">
          <mxGeometry width="50" height="50" relative="1" as="geometry">
            <mxPoint x="402.94" y="25.5" as="sourcePoint" />
            <mxPoint x="318.94" y="-124.5" as="targetPoint" />
          </mxGeometry>
        </mxCell>
        <mxCell id="TjHL__S3JmsOCRUsOF36-33" value="" style="sketch=0;html=1;aspect=fixed;strokeColor=#666666;shadow=0;fillColor=#757575;verticalAlign=top;labelPosition=center;verticalLabelPosition=bottom;shape=mxgraph.gcp2.database_2;fontColor=#333333;" parent="1" vertex="1">
          <mxGeometry x="666.19" y="-65.5" width="39" height="50" as="geometry" />
        </mxCell>
        <mxCell id="TjHL__S3JmsOCRUsOF36-34" style="rounded=0;orthogonalLoop=1;jettySize=auto;html=1;endArrow=none;endFill=0;exitX=1.066;exitY=0.481;exitDx=0;exitDy=0;exitPerimeter=0;fillColor=#f5f5f5;strokeColor=#666666;" parent="1" source="TjHL__S3JmsOCRUsOF36-35" edge="1">
          <mxGeometry relative="1" as="geometry">
            <mxPoint x="628.19" y="-35.5" as="sourcePoint" />
            <mxPoint x="658.19" y="-39.5" as="targetPoint" />
          </mxGeometry>
        </mxCell>
        <mxCell id="TjHL__S3JmsOCRUsOF36-35" value="" style="sketch=0;html=1;aspect=fixed;strokeColor=none;shadow=0;fillColor=#757575;verticalAlign=top;labelPosition=center;verticalLabelPosition=bottom;shape=mxgraph.gcp2.gear" parent="1" vertex="1">
          <mxGeometry x="578.19" y="-63.5" width="50" height="50" as="geometry" />
        </mxCell>
        <mxCell id="TjHL__S3JmsOCRUsOF36-36" value="GoLang" style="text;html=1;strokeColor=none;fillColor=none;align=center;verticalAlign=middle;whiteSpace=wrap;rounded=0;fontStyle=1;fontColor=#757575;" parent="1" vertex="1">
          <mxGeometry x="574.19" y="-14.5" width="60" height="30" as="geometry" />
        </mxCell>
        <mxCell id="TjHL__S3JmsOCRUsOF36-37" value="&lt;span&gt;DB PostgreSQL&lt;/span&gt;" style="text;html=1;strokeColor=none;fillColor=none;align=center;verticalAlign=middle;whiteSpace=wrap;rounded=0;fontStyle=1;fontColor=#757575;" parent="1" vertex="1">
          <mxGeometry x="655.69" y="-13.5" width="60" height="30" as="geometry" />
        </mxCell>
        <mxCell id="TjHL__S3JmsOCRUsOF36-42" value="&lt;font color=&quot;#004d65&quot;&gt;HTTP&lt;/font&gt;" style="edgeLabel;html=1;align=center;verticalAlign=middle;resizable=0;points=[];" parent="1" vertex="1" connectable="0">
          <mxGeometry x="482.9407970258263" y="254.50319551778864" as="geometry">
            <mxPoint x="11" y="-240" as="offset" />
          </mxGeometry>
        </mxCell>
        <mxCell id="TjHL__S3JmsOCRUsOF36-48" value="" style="html=1;verticalLabelPosition=bottom;align=center;labelBackgroundColor=#ffffff;verticalAlign=top;strokeWidth=2;strokeColor=#0080F0;shadow=0;dashed=0;shape=mxgraph.ios7.icons.locked;" parent="1" vertex="1">
          <mxGeometry x="459.94" y="229" width="13" height="16" as="geometry" />
        </mxCell>
        <mxCell id="4Rq_WDNVxFxehB5hPdWi-1" value="" style="sketch=0;html=1;aspect=fixed;strokeColor=#666666;shadow=0;fillColor=#757575;verticalAlign=top;labelPosition=center;verticalLabelPosition=bottom;shape=mxgraph.gcp2.database_2;fontColor=#333333;" parent="1" vertex="1">
          <mxGeometry x="666.19" y="265.5" width="39" height="50" as="geometry" />
        </mxCell>
        <mxCell id="4Rq_WDNVxFxehB5hPdWi-2" value="MongoDB" style="text;html=1;strokeColor=none;fillColor=none;align=center;verticalAlign=middle;whiteSpace=wrap;rounded=0;fontStyle=1;fontColor=#757575;" parent="1" vertex="1">
          <mxGeometry x="655.69" y="315.5" width="60" height="30" as="geometry" />
        </mxCell>
        <mxCell id="4Rq_WDNVxFxehB5hPdWi-5" style="edgeStyle=orthogonalEdgeStyle;rounded=0;orthogonalLoop=1;jettySize=auto;html=1;entryX=0.019;entryY=0.7;entryDx=0;entryDy=0;entryPerimeter=0;endArrow=none;endFill=0;fillColor=#f5f5f5;strokeColor=#666666;" parent="1" source="QShAf5VT7i_qyNpQsQwI-54" target="4Rq_WDNVxFxehB5hPdWi-1" edge="1">
          <mxGeometry relative="1" as="geometry" />
        </mxCell>
        <mxCell id="4Rq_WDNVxFxehB5hPdWi-6" style="edgeStyle=orthogonalEdgeStyle;rounded=0;orthogonalLoop=1;jettySize=auto;html=1;entryX=0.045;entryY=0.62;entryDx=0;entryDy=0;entryPerimeter=0;endArrow=none;endFill=0;fillColor=#f5f5f5;strokeColor=#666666;" parent="1" source="QShAf5VT7i_qyNpQsQwI-54" target="QShAf5VT7i_qyNpQsQwI-53" edge="1">
          <mxGeometry relative="1" as="geometry" />
        </mxCell>
        <mxCell id="lldvH-l1IPFX6XNPCzlH-1" value="" style="strokeColor=#dddddd;shadow=1;strokeWidth=1;rounded=1;absoluteArcSize=1;arcSize=2;" vertex="1" parent="1">
          <mxGeometry x="559.94" y="408" width="170" height="250" as="geometry" />
        </mxCell>
        <mxCell id="lldvH-l1IPFX6XNPCzlH-2" value="" style="group" vertex="1" connectable="0" parent="1">
          <mxGeometry x="562.94" y="618" width="91" height="39" as="geometry" />
        </mxCell>
        <mxCell id="lldvH-l1IPFX6XNPCzlH-3" value="" style="shape=image;html=1;verticalAlign=top;verticalLabelPosition=bottom;labelBackgroundColor=#ffffff;imageAspect=0;aspect=fixed;image=https://cdn0.iconfinder.com/data/icons/social-media-2104/24/social_media_social_media_logo_docker-128.png;fontColor=#0066CC;imageBackground=none;" vertex="1" parent="lldvH-l1IPFX6XNPCzlH-2">
          <mxGeometry y="4" width="30" height="30" as="geometry" />
        </mxCell>
        <mxCell id="lldvH-l1IPFX6XNPCzlH-4" value="&lt;font style=&quot;font-size: 10px;&quot;&gt;Container&lt;br&gt;&lt;/font&gt;" style="text;html=1;strokeColor=none;fillColor=none;align=left;verticalAlign=middle;whiteSpace=wrap;rounded=0;" vertex="1" parent="lldvH-l1IPFX6XNPCzlH-2">
          <mxGeometry x="36" width="55" height="39" as="geometry" />
        </mxCell>
        <mxCell id="lldvH-l1IPFX6XNPCzlH-5" value="&lt;b style=&quot;font-size: x-small;&quot;&gt;DeliveryMan&lt;/b&gt;" style="text;html=1;strokeColor=none;fillColor=none;align=center;verticalAlign=middle;whiteSpace=wrap;rounded=0;" vertex="1" parent="1">
          <mxGeometry x="614.94" y="417" width="60" height="30" as="geometry" />
        </mxCell>
        <mxCell id="lldvH-l1IPFX6XNPCzlH-7" value="" style="sketch=0;html=1;aspect=fixed;strokeColor=#666666;shadow=0;fillColor=#757575;verticalAlign=top;labelPosition=center;verticalLabelPosition=bottom;shape=mxgraph.gcp2.database_2;fontColor=#333333;" vertex="1" parent="1">
          <mxGeometry x="666.19" y="488" width="39" height="50" as="geometry" />
        </mxCell>
        <mxCell id="lldvH-l1IPFX6XNPCzlH-8" value="" style="sketch=0;html=1;aspect=fixed;strokeColor=none;shadow=0;fillColor=#757575;verticalAlign=top;labelPosition=center;verticalLabelPosition=bottom;shape=mxgraph.gcp2.gear" vertex="1" parent="1">
          <mxGeometry x="572.19" y="493.5" width="50" height="50" as="geometry" />
        </mxCell>
        <mxCell id="lldvH-l1IPFX6XNPCzlH-9" value="&lt;span&gt;GoLang&lt;/span&gt;" style="text;html=1;strokeColor=none;fillColor=none;align=center;verticalAlign=middle;whiteSpace=wrap;rounded=0;fontStyle=1;fontColor=#757575;" vertex="1" parent="1">
          <mxGeometry x="568.19" y="542.5" width="60" height="30" as="geometry" />
        </mxCell>
        <mxCell id="lldvH-l1IPFX6XNPCzlH-10" value="&lt;span&gt;MongoDB&lt;/span&gt;" style="text;html=1;strokeColor=none;fillColor=none;align=center;verticalAlign=middle;whiteSpace=wrap;rounded=0;fontStyle=1;fontColor=#757575;" vertex="1" parent="1">
          <mxGeometry x="655.69" y="540" width="60" height="30" as="geometry" />
        </mxCell>
        <mxCell id="lldvH-l1IPFX6XNPCzlH-14" style="edgeStyle=orthogonalEdgeStyle;rounded=0;orthogonalLoop=1;jettySize=auto;html=1;entryX=0.045;entryY=0.62;entryDx=0;entryDy=0;entryPerimeter=0;endArrow=none;endFill=0;fillColor=#f5f5f5;strokeColor=#666666;" edge="1" parent="1" source="lldvH-l1IPFX6XNPCzlH-8" target="lldvH-l1IPFX6XNPCzlH-7">
          <mxGeometry relative="1" as="geometry" />
        </mxCell>
        <mxCell id="lldvH-l1IPFX6XNPCzlH-15" value="" style="endArrow=none;dashed=1;html=1;dashPattern=1 3;strokeWidth=2;rounded=0;entryX=0;entryY=0.5;entryDx=0;entryDy=0;fillColor=#dae8fc;strokeColor=#6c8ebf;exitX=1;exitY=0.75;exitDx=0;exitDy=0;" edge="1" parent="1" source="QShAf5VT7i_qyNpQsQwI-6" target="lldvH-l1IPFX6XNPCzlH-1">
          <mxGeometry width="50" height="50" relative="1" as="geometry">
            <mxPoint x="404.41" y="570.5" as="sourcePoint" />
            <mxPoint x="561.47" y="571" as="targetPoint" />
          </mxGeometry>
        </mxCell>
        <mxCell id="lldvH-l1IPFX6XNPCzlH-16" value="&lt;font color=&quot;#008cb4&quot;&gt;HTTP&lt;/font&gt;" style="edgeLabel;html=1;align=center;verticalAlign=middle;resizable=0;points=[];" vertex="1" connectable="0" parent="lldvH-l1IPFX6XNPCzlH-15">
          <mxGeometry x="0.2162" y="-4" relative="1" as="geometry">
            <mxPoint x="-6" y="-13" as="offset" />
          </mxGeometry>
        </mxCell>
        <mxCell id="lldvH-l1IPFX6XNPCzlH-18" value="" style="html=1;verticalLabelPosition=bottom;align=center;labelBackgroundColor=#ffffff;verticalAlign=top;strokeWidth=2;strokeColor=#0080F0;shadow=0;dashed=0;shape=mxgraph.ios7.icons.locked;" vertex="1" parent="1">
          <mxGeometry x="461.41" y="512" width="13" height="16" as="geometry" />
        </mxCell>
        <mxCell id="lldvH-l1IPFX6XNPCzlH-23" value="" style="group" vertex="1" connectable="0" parent="1">
          <mxGeometry x="879" y="120" width="80" height="630" as="geometry" />
        </mxCell>
        <mxCell id="lldvH-l1IPFX6XNPCzlH-20" value="" style="strokeColor=#dddddd;shadow=1;strokeWidth=1;rounded=1;absoluteArcSize=1;arcSize=2;" vertex="1" parent="lldvH-l1IPFX6XNPCzlH-23">
          <mxGeometry y="-4" width="80" height="630" as="geometry" />
        </mxCell>
        <mxCell id="lldvH-l1IPFX6XNPCzlH-22" value="RabbitMQ" style="outlineConnect=0;dashed=0;verticalLabelPosition=bottom;verticalAlign=top;align=center;html=1;shape=mxgraph.aws3.queue;fillColor=#666666;strokeColor=#666666;fontColor=#333333;" vertex="1" parent="lldvH-l1IPFX6XNPCzlH-23">
          <mxGeometry x="9.5" y="301" width="61" height="28" as="geometry" />
        </mxCell>
        <mxCell id="lldvH-l1IPFX6XNPCzlH-24" style="edgeStyle=orthogonalEdgeStyle;rounded=0;orthogonalLoop=1;jettySize=auto;html=1;exitX=1;exitY=0.25;exitDx=0;exitDy=0;entryX=0.028;entryY=0.113;entryDx=0;entryDy=0;entryPerimeter=0;" edge="1" parent="1" source="QShAf5VT7i_qyNpQsQwI-22" target="lldvH-l1IPFX6XNPCzlH-20">
          <mxGeometry relative="1" as="geometry" />
        </mxCell>
        <mxCell id="lldvH-l1IPFX6XNPCzlH-25" value="OnApproveOrder" style="edgeLabel;html=1;align=center;verticalAlign=middle;resizable=0;points=[];" vertex="1" connectable="0" parent="lldvH-l1IPFX6XNPCzlH-24">
          <mxGeometry x="-0.2914" y="3" relative="1" as="geometry">
            <mxPoint x="11" y="-7" as="offset" />
          </mxGeometry>
        </mxCell>
        <mxCell id="lldvH-l1IPFX6XNPCzlH-27" style="rounded=0;orthogonalLoop=1;jettySize=auto;html=1;entryX=-0.001;entryY=0.665;entryDx=0;entryDy=0;entryPerimeter=0;endArrow=none;endFill=0;startArrow=classic;startFill=1;" edge="1" parent="1">
          <mxGeometry relative="1" as="geometry">
            <mxPoint x="729.94" y="535.0588235294117" as="sourcePoint" />
            <mxPoint x="878.9200000000001" y="536.9500000000003" as="targetPoint" />
          </mxGeometry>
        </mxCell>
        <mxCell id="lldvH-l1IPFX6XNPCzlH-35" style="edgeStyle=orthogonalEdgeStyle;rounded=0;orthogonalLoop=1;jettySize=auto;html=1;" edge="1" parent="1" source="lldvH-l1IPFX6XNPCzlH-32" target="QShAf5VT7i_qyNpQsQwI-6">
          <mxGeometry relative="1" as="geometry" />
        </mxCell>
        <mxCell id="lldvH-l1IPFX6XNPCzlH-32" value="App DeliveryMan" style="strokeColor=#dddddd;shadow=1;strokeWidth=1;rounded=1;absoluteArcSize=1;arcSize=2;labelPosition=center;verticalLabelPosition=middle;align=center;verticalAlign=bottom;spacingLeft=0;fontColor=#999999;fontSize=12;whiteSpace=wrap;spacingBottom=2;html=1;" vertex="1" parent="1">
          <mxGeometry y="264.5" width="70" height="100.5" as="geometry" />
        </mxCell>
        <mxCell id="lldvH-l1IPFX6XNPCzlH-33" value="" style="sketch=0;dashed=0;connectable=0;html=1;fillColor=#757575;strokeColor=none;shape=mxgraph.gcp2.phone;part=1;" vertex="1" parent="lldvH-l1IPFX6XNPCzlH-32">
          <mxGeometry x="0.5" width="29.5" height="50" relative="1" as="geometry">
            <mxPoint x="-16" y="10" as="offset" />
          </mxGeometry>
        </mxCell>
      </root>
    </mxGraphModel>
  </diagram>
</mxfile>
